# xmcd
#
# Track frame offsets:
#      150
#      21045
#      40294
#      56917
#      75501
#      90772
#      107408
#      121373
#      136283
#      151017
#      165701
#      180845
#      200224
#      218636
#      234606
#      250388
#      264858
#      282478
#      297691
#      315765
# 
# Disc length: 4414 seconds
#
# Revision: 3
# Processed by: cddbd v1.4PL0 Copyright (c) Steve Scherf et al.
#
# Submitted via: FreeRIP 1.21
#
DISCID=0c113c14,f4113c14
DTITLE=Various Artist - Bravo Hits 32 CD 1
DYEAR=1900
DGENRE=blues
TTITLE0=( 2001 ) Sugarbabes - Overload
TTITLE1=( 2001 ) Robbie Williams - Supreme
TTITLE2=( 2001 ) Destiny's Child - Independent Woman Part 1
TTITLE3=( 2001 ) Wyclef Jean feat. Mary J Blige - 911
TTITLE4=( 2001 ) Girlscamp - Sister
TTITLE5=( 2001 ) Debelah Morgan - Dance With Me
TTITLE6=( 2001 ) Nelly - Country Grammar (Hot ...)
TTITLE7=( 2001 ) Baha Men - Who Let The Dogs Out
TTITLE8=( 2001 ) Billy More - Up and Down (Don't Fall In Love With Me)
TTITLE9=( 2001 ) A Teens - Upside Down
TTITLE10=( 2001 ) Samantha Mumba - Gotta Tell You
TTITLE11=( 2001 ) LL Cool J feat. Kelly Price - You And Me
TTITLE12=( 2001 ) Milk and Sugar - Higher and Higer
TTITLE13=( 2001 ) No Angels - Daylight In Your Eyes
TTITLE14=( 2001 ) Melanie Thornton - Love How You Love Me
TTITLE15=( 2001 ) Sweetbox - For The Lonely
TTITLE16=( 2001 ) Barcode Brothers - Dooh Dooh
TTITLE17=( 2001 ) Nelifer - Gib' mir 100% von Dir
TTITLE18=( 2001 ) Spooks - Things I've Seen
TTITLE19=( 2001 ) Spike - Never Gonna Give You Up
EXTD=
EXTT0=
EXTT1=
EXTT2=
EXTT3=
EXTT4=
EXTT5=
EXTT6=
EXTT7=
EXTT8=
EXTT9=
EXTT10=
EXTT11=
EXTT12=
EXTT13=
EXTT14=
EXTT15=
EXTT16=
EXTT17=
EXTT18=
EXTT19=
PLAYORDER=
